<svg width="182" height="70" viewBox="0 0 182 70" fill="none" xmlns="http://www.w3.org/2000/svg">
<path d="M21.1133 64.8447C20.355 66.8333 21.4164 69.0429 23.4634 69.7791C23.9183 69.9265 24.3731 70 24.8278 70C26.4202 70 27.9364 69.0424 28.5429 67.4961L32.6366 56.6698L27.3297 48.4214L21.1133 64.8447Z" fill="#242B5E"/>
<path d="M57.2772 27.2842L51.3637 26.0323C50.5297 25.8849 49.7713 25.3696 49.1654 24.7069C43.1001 17.3421 41.9631 16.9003 40.3707 16.8263L34.6847 16.4579C33.8507 16.3845 32.865 16.3845 24.8286 19.4036C22.8576 20.1403 21.1136 21.4657 19.901 23.1595L15.5037 29.4199C15.2007 29.7882 15.0489 30.23 14.9728 30.6718C13.684 30.5244 12.3952 31.0402 11.6368 32.2187L10.8784 33.3972L8.22465 31.8503C7.39066 31.3345 6.2536 31.6294 5.72277 32.4396L0.264122 41.1298C-0.266837 41.9399 0.0367189 43.0445 0.870706 43.5602L14.8977 51.7356C15.7317 52.2514 16.8688 51.9565 17.3996 51.1464L22.8583 42.4562C23.3892 41.646 23.0857 40.5414 22.2517 40.0258L19.5979 38.4789L20.3563 37.3004C21.0385 36.2694 20.9629 35.0175 20.3563 33.9864C20.6593 33.7655 20.9629 33.4706 21.2659 33.1762L25.6631 26.9159C26.1179 26.3266 26.7245 25.8848 27.4067 25.5905C28.0889 25.3696 28.6199 25.1487 29.2264 24.9278L26.5726 33.7654C25.663 36.7111 26.1178 39.9517 27.8614 42.5296L44.0857 68.1592C44.8441 69.3377 46.1328 70.0004 47.4217 70.0004C48.18 70.0004 48.8623 69.8529 49.5445 69.4111C51.4398 68.3066 51.9708 65.9497 50.8333 64.1085L37.6414 43.5607L43.1001 28.0946C43.3275 28.3889 43.5549 28.6103 43.7823 28.9047C45.2984 30.8194 47.4973 32.0713 49.9231 32.5871L55.8366 33.8391C57.732 34.2074 59.5517 33.1024 59.9303 31.2611C60.3101 29.4938 59.0969 27.7261 57.2771 27.2844L57.2772 27.2842ZM18.0053 35.975L17.247 37.1535L13.2288 34.7965L13.9872 33.618C14.1389 33.3236 14.5937 33.2496 14.8968 33.3971L17.8535 35.1648C18.0809 35.2382 18.1566 35.68 18.0053 35.9749L18.0053 35.975Z" fill="#242B5E"/>
<path d="M39.4509 0.0443603C43.6553 0.489247 46.6918 4.16089 46.2339 8.24455C45.7759 12.3287 41.9963 15.2785 37.7925 14.8337C33.5882 14.3888 30.5517 10.7177 31.0095 6.63349C31.4675 2.54984 35.2466 -0.400421 39.4509 0.0443603Z" fill="#242B5E"/>
<path d="M61.4595 36.0909V55H58.0064L49.7798 43.0987H49.6413V55H45.6435V36.0909H49.152L57.3139 47.983H57.4801V36.0909H61.4595ZM71.1418 55H66.8577L73.3854 36.0909H78.5374L85.0559 55H80.7718L76.0353 40.4119H75.8876L71.1418 55ZM70.8741 47.5675H80.9934V50.6882H70.8741V47.5675ZM102.132 36.0909H106.129V48.3707C106.129 49.7495 105.8 50.956 105.141 51.9901C104.489 53.0241 103.575 53.8305 102.399 54.4091C101.224 54.9815 99.854 55.2678 98.2906 55.2678C96.721 55.2678 95.3484 54.9815 94.1727 54.4091C92.997 53.8305 92.083 53.0241 91.4305 51.9901C90.7781 50.956 90.4518 49.7495 90.4518 48.3707V36.0909H94.4497V48.0291C94.4497 48.7493 94.6067 49.3894 94.9206 49.9496C95.2406 50.5097 95.69 50.9498 96.2686 51.2699C96.8472 51.59 97.5212 51.75 98.2906 51.75C99.0662 51.75 99.7402 51.59 100.313 51.2699C100.891 50.9498 101.337 50.5097 101.651 49.9496C101.971 49.3894 102.132 48.7493 102.132 48.0291V36.0909ZM112.539 55V36.0909H116.536V44.4283H116.786L123.59 36.0909H128.382L121.365 44.5575L128.465 55H123.683L118.503 47.2259L116.536 49.6264V55H112.539ZM133.584 55V36.0909H141.045C142.473 36.0909 143.691 36.3464 144.701 36.8572C145.717 37.362 146.489 38.0791 147.018 39.0085C147.554 39.9318 147.822 41.0182 147.822 42.2678C147.822 43.5234 147.551 44.6037 147.009 45.5085C146.467 46.4072 145.683 47.0966 144.655 47.5767C143.633 48.0568 142.396 48.2969 140.943 48.2969H135.948V45.0838H140.297C141.06 45.0838 141.694 44.9792 142.199 44.7699C142.703 44.5606 143.079 44.2467 143.325 43.8281C143.578 43.4096 143.704 42.8894 143.704 42.2678C143.704 41.6399 143.578 41.1106 143.325 40.6797C143.079 40.2488 142.7 39.9226 142.19 39.701C141.685 39.4732 141.048 39.3594 140.278 39.3594H137.582V55H133.584ZM143.796 46.3949L148.496 55H144.082L139.484 46.3949H143.796ZM157.765 36.0909V55H153.767V36.0909H157.765Z" fill="#133760"/>
<path d="M55.6953 66V58H57.3867V61.5273H57.4922L60.3711 58H62.3984L59.4297 61.582L62.4336 66H60.4102L58.2188 62.7109L57.3867 63.7266V66H55.6953ZM65.7582 66H63.9457L66.7074 58H68.8871L71.6449 66H69.8324L67.8285 59.8281H67.766L65.7582 66ZM65.6449 62.8555H69.9262V64.1758H65.6449V62.8555ZM73.7078 66V58H76.8641C77.4682 58 77.9839 58.1081 78.4109 58.3242C78.8406 58.5378 79.1674 58.8411 79.3914 59.2344C79.618 59.625 79.7313 60.0846 79.7313 60.6133C79.7313 61.1445 79.6167 61.6016 79.3875 61.9844C79.1583 62.3646 78.8263 62.6562 78.3914 62.8594C77.9591 63.0625 77.4357 63.1641 76.8211 63.1641H74.7078V61.8047H76.5477C76.8706 61.8047 77.1388 61.7604 77.3523 61.6719C77.5659 61.5833 77.7247 61.4505 77.8289 61.2734C77.9357 61.0964 77.9891 60.8763 77.9891 60.6133C77.9891 60.3477 77.9357 60.1237 77.8289 59.9414C77.7247 59.7591 77.5646 59.6211 77.3484 59.5273C77.1349 59.431 76.8654 59.3828 76.5398 59.3828H75.3992V66H73.7078ZM78.0281 62.3594L80.0164 66H78.1492L76.2039 62.3594H78.0281ZM82.0266 66V58H87.4172V59.3945H83.718V61.3008H87.1398V62.6953H83.718V64.6055H87.4328V66H82.0266ZM96.5533 58V66H95.0924L91.6119 60.9648H91.5533V66H89.8619V58H91.3463L94.7994 63.0312H94.8697V58H96.5533ZM104.355 60.5859C104.301 60.3958 104.224 60.2279 104.125 60.082C104.026 59.9336 103.905 59.8086 103.762 59.707C103.621 59.6029 103.46 59.5234 103.277 59.4688C103.098 59.4141 102.898 59.3867 102.68 59.3867C102.271 59.3867 101.911 59.4883 101.602 59.6914C101.294 59.8945 101.055 60.1901 100.883 60.5781C100.711 60.9635 100.625 61.4349 100.625 61.9922C100.625 62.5495 100.71 63.0234 100.879 63.4141C101.048 63.8047 101.288 64.1029 101.598 64.3086C101.908 64.5117 102.273 64.6133 102.695 64.6133C103.078 64.6133 103.405 64.5456 103.676 64.4102C103.949 64.2721 104.158 64.0781 104.301 63.8281C104.447 63.5781 104.52 63.2826 104.52 62.9414L104.863 62.9922H102.801V61.7187H106.148V62.7266C106.148 63.4297 106 64.0339 105.703 64.5391C105.406 65.0417 104.997 65.4297 104.477 65.7031C103.956 65.974 103.359 66.1094 102.688 66.1094C101.938 66.1094 101.279 65.944 100.711 65.6133C100.143 65.2799 99.7005 64.8073 99.3828 64.1953C99.0677 63.5807 98.9102 62.8516 98.9102 62.0078C98.9102 61.3594 99.0039 60.7812 99.1914 60.2734C99.3815 59.763 99.6471 59.3307 99.9883 58.9766C100.329 58.6224 100.727 58.3529 101.18 58.168C101.633 57.9831 102.124 57.8906 102.652 57.8906C103.105 57.8906 103.527 57.957 103.918 58.0898C104.309 58.2201 104.655 58.4049 104.957 58.6445C105.262 58.8841 105.51 59.1693 105.703 59.5C105.896 59.8281 106.02 60.1901 106.074 60.5859H104.355ZM108.519 66V58H113.91V59.3945H110.21V61.3008H113.632V62.6953H110.21V64.6055H113.925V66H108.519ZM117.296 66.1016C117.038 66.1016 116.817 66.0104 116.632 65.8281C116.449 65.6432 116.358 65.4219 116.358 65.1641C116.358 64.9089 116.449 64.6901 116.632 64.5078C116.817 64.3255 117.038 64.2344 117.296 64.2344C117.546 64.2344 117.764 64.3255 117.952 64.5078C118.139 64.6901 118.233 64.9089 118.233 65.1641C118.233 65.3359 118.189 65.4935 118.1 65.6367C118.014 65.7773 117.901 65.8906 117.761 65.9766C117.62 66.0599 117.465 66.1016 117.296 66.1016ZM127.789 60.8008H126.078C126.047 60.5794 125.983 60.3828 125.887 60.2109C125.791 60.0365 125.667 59.888 125.516 59.7656C125.365 59.6432 125.19 59.5495 124.992 59.4844C124.797 59.4193 124.585 59.3867 124.356 59.3867C123.942 59.3867 123.581 59.4896 123.274 59.6953C122.966 59.8984 122.728 60.1953 122.559 60.5859C122.39 60.974 122.305 61.4453 122.305 62C122.305 62.5703 122.39 63.0495 122.559 63.4375C122.731 63.8255 122.97 64.1185 123.278 64.3164C123.585 64.5143 123.94 64.6133 124.344 64.6133C124.571 64.6133 124.78 64.5833 124.973 64.5234C125.168 64.4635 125.341 64.3763 125.492 64.2617C125.643 64.1445 125.768 64.0026 125.867 63.8359C125.969 63.6693 126.039 63.4792 126.078 63.2656L127.789 63.2734C127.745 63.6406 127.634 63.9948 127.457 64.3359C127.283 64.6745 127.047 64.9779 126.75 65.2461C126.456 65.5117 126.104 65.7227 125.696 65.8789C125.289 66.0326 124.83 66.1094 124.317 66.1094C123.603 66.1094 122.965 65.9479 122.403 65.625C121.843 65.3021 121.4 64.8346 121.074 64.2227C120.752 63.6107 120.59 62.8698 120.59 62C120.59 61.1276 120.754 60.3854 121.082 59.7734C121.41 59.1615 121.856 58.6953 122.418 58.375C122.981 58.0521 123.613 57.8906 124.317 57.8906C124.78 57.8906 125.21 57.9557 125.606 58.0859C126.004 58.2161 126.357 58.4062 126.664 58.6562C126.972 58.9036 127.222 59.207 127.414 59.5664C127.61 59.9258 127.735 60.3372 127.789 60.8008ZM137.454 62C137.454 62.8724 137.288 63.6146 136.958 64.2266C136.629 64.8385 136.182 65.306 135.614 65.6289C135.049 65.9492 134.413 66.1094 133.708 66.1094C132.997 66.1094 132.359 65.9479 131.794 65.625C131.228 65.3021 130.782 64.8346 130.454 64.2227C130.126 63.6107 129.962 62.8698 129.962 62C129.962 61.1276 130.126 60.3854 130.454 59.7734C130.782 59.1615 131.228 58.6953 131.794 58.375C132.359 58.0521 132.997 57.8906 133.708 57.8906C134.413 57.8906 135.049 58.0521 135.614 58.375C136.182 58.6953 136.629 59.1615 136.958 59.7734C137.288 60.3854 137.454 61.1276 137.454 62ZM135.739 62C135.739 61.4349 135.654 60.9583 135.485 60.5703C135.318 60.1823 135.083 59.888 134.778 59.6875C134.473 59.487 134.116 59.3867 133.708 59.3867C133.299 59.3867 132.942 59.487 132.637 59.6875C132.333 59.888 132.096 60.1823 131.926 60.5703C131.76 60.9583 131.676 61.4349 131.676 62C131.676 62.5651 131.76 63.0417 131.926 63.4297C132.096 63.8177 132.333 64.112 132.637 64.3125C132.942 64.513 133.299 64.6133 133.708 64.6133C134.116 64.6133 134.473 64.513 134.778 64.3125C135.083 64.112 135.318 63.8177 135.485 63.4297C135.654 63.0417 135.739 62.5651 135.739 62ZM139.807 58H141.893L144.096 63.375H144.189L146.393 58H148.479V66H146.838V60.793H146.771L144.701 65.9609H143.584L141.514 60.7734H141.447V66H139.807V58Z" fill="#7D7D7D"/>
</svg>
